<?xml version="1.0" encoding="UTF-8"?>
<svg width="157px" height="24px" viewBox="0 0 157 24" version="1.1" xmlns="http://www.w3.org/2000/svg" xmlns:xlink="http://www.w3.org/1999/xlink">
    <!-- Generator: Sketch 59.1 (86144) - https://sketch.com -->
    <title>HostGator</title>
    <desc>Created with Sketch.</desc>
    <g id="Page-2" stroke="none" stroke-width="1" fill="none" fill-rule="evenodd">
        <g id="Dashboard" transform="translate(-100.000000, -39.000000)" fill="#FFFFFF" fill-rule="nonzero">
            <g id="HostGator" transform="translate(100.000000, 39.000000)">
                <path d="M45.4423544,17.177534 C45.6709951,18.6007282 46.9666262,19.1310874 48.3803883,19.1310874 C49.7941505,19.1310874 50.8878155,18.5358641 50.9068689,17.8070971 C50.9564078,16.7082233 50.0951942,16.055767 48.8757767,15.8192039 C48.0336165,15.6589515 45.5071359,15.1591165 45.5071359,15.1591165 C42.4357282,14.598233 40.6866262,13.7092136 40.6866262,11.0955728 C40.6866262,7.6921165 43.6246602,5.47529126 47.8202184,5.47529126 C51.9471845,5.47529126 54.6794417,7.36016505 55.3463107,10.2370777 L50.525801,11.1947767 C50.3619417,10.1683981 49.3825971,9.24503883 47.7516262,9.24503883 C46.3340534,9.24503883 45.6214563,9.84026214 45.4880825,10.5346893 C45.4004369,10.9887379 45.6214563,11.3664757 47.1228641,11.6793495 C48.0983981,11.8892039 51.0211893,12.4729806 51.0211893,12.4729806 C54.1573786,13.133068 55.5940049,15.0179417 55.5940049,17.463699 C55.5940049,21.1342427 52.4273301,23.0534563 48.0679126,23.0534563 C44.1695874,23.0534563 40.8276214,21.6302621 40.2750728,18.2268058 L45.4423544,17.177534 Z" id="Path"></path>
                <path d="M93.6017233,9.63040777 C93.6881591,10.3023287 93.7327033,10.9789888 93.7350971,11.6564563 C93.7350971,18.3985049 88.9260194,23.2480485 82.2268447,23.2480485 C75.5276699,23.2480485 70.2498786,18.1543107 70.2498786,11.6221165 C70.2498786,5.08992233 75.4590777,-4.08562073e-14 82.1353883,-4.08562073e-14 C87.0892718,-4.08562073e-14 91.4258252,2.32366019 92.9843932,6.67718447 L87.7104126,8.20339806 C86.4147816,5.67751456 84.280801,5.01361165 82.1353883,5.01361165 C78.5228641,5.01361165 75.7677427,7.8714466 75.7677427,11.6221165 C75.7677427,15.3727864 78.5876456,18.2649612 82.3030583,18.2649612 C85.2220388,18.2649612 87.3445874,16.7387476 88.1753155,14.2815437 L81.3732524,14.2815437 L81.3732524,9.63040777 L93.6017233,9.63040777 Z" id="Path"></path>
                <polygon id="Path" points="20.2651942 22.3704757 14.8235437 22.3704757 14.8235437 13.5756699 5.47213592 13.5756699 5.47213592 22.3704757 -2.23820962e-13 22.3704757 -2.23820962e-13 0.118281553 5.47213592 0.118281553 5.47213592 8.78717476 14.8235437 8.78717476 14.8235437 0.118281553 20.2651942 0.118281553"></polygon>
                <path d="M39.9625971,14.033534 C39.9625971,19.314233 35.7708495,22.8359709 30.8436408,22.8359709 C25.8021117,22.8359709 21.6217961,19.2989709 21.6217961,14.033534 C21.6217961,8.76809709 25.8135437,5.25780583 30.8436408,5.25780583 C35.7860922,5.26925243 39.9625971,8.78717476 39.9625971,14.033534 Z M34.8562864,14.033534 C34.8562864,11.4427864 32.8975971,9.71816505 30.8436408,9.71816505 C29.7213821,9.72873777 28.6510643,10.1931671 27.875984,11.0058824 C27.1009037,11.8185977 26.6869092,12.9105533 26.7281068,14.033534 C26.7281068,16.6586214 28.6867961,18.3527184 30.8436408,18.3527184 C32.8975971,18.3527184 34.8562864,16.6586214 34.8562864,14.033534 Z" id="Shape"></path>
                <path d="M70.4251699,21.6417087 C69.0439707,22.4441908 67.4759153,22.8679604 65.8790291,22.8703107 C61.7330097,22.8703107 59.2484466,20.6115146 59.2484466,16.227466 L59.2484466,9.91657282 L56.222767,9.91657282 L56.222767,5.71948544 L59.2408252,5.71948544 L59.2408252,1.26294175 L64.5452913,0.118281553 L64.5452913,5.70040777 L69.4534466,5.70040777 L69.4534466,9.89749515 L64.5529126,9.89749515 L64.5529126,15.6971068 C64.5529126,17.4217282 65.3836408,18.1199709 66.7745388,18.1199709 C67.6230243,18.0907279 68.452949,17.8633838 69.1981311,17.456068 L70.4251699,21.6417087 Z" id="Path"></path>
                <path d="M110.521141,11.8090777 L110.521141,22.3704757 L105.41483,22.3704757 L105.41483,21.1418738 C104.02244,22.3152237 102.245533,22.9309339 100.42665,22.8703107 C96.7112379,22.8703107 94.2266748,20.7107184 94.2266748,17.4217282 C94.2266748,14.1327379 96.7226699,12.0494563 101.188786,12.0494563 L105.433883,12.0494563 L105.433883,11.7175049 C105.468234,11.0805026 105.227796,10.4593904 104.773655,10.0119698 C104.319514,9.56454933 103.695383,9.33388586 103.05983,9.37858252 C101.466966,9.37858252 100.53716,10.0081456 100.274223,11.4694951 L95.2631796,10.439301 C95.9948301,7.21899029 98.9138107,5.19294175 102.884539,5.19294175 C107.567864,5.20057282 110.521141,7.55857282 110.521141,11.8090777 Z M105.41483,15.7963107 L105.41483,15.4147573 L101.764199,15.4147573 C100.438083,15.4147573 99.611165,16.113 99.611165,17.1431942 C99.611165,18.1733883 100.53716,18.8678155 101.931869,18.8678155 C103.753374,18.8830777 105.41483,17.6544757 105.41483,15.7963107 L105.41483,15.7963107 Z" id="Shape"></path>
                <path d="M125.512354,21.6417087 C124.131155,22.4441908 122.5631,22.8679604 120.966214,22.8703107 C116.820194,22.8703107 114.335631,20.6115146 114.335631,16.227466 L114.335631,9.91657282 L111.317573,9.91657282 L111.317573,5.71948544 L114.335631,5.71948544 L114.335631,1.26294175 L119.640097,0.118281553 L119.640097,5.70040777 L124.548252,5.70040777 L124.548252,9.89749515 L119.640097,9.89749515 L119.640097,15.6971068 C119.640097,17.4217282 120.470825,18.1199709 121.861723,18.1199709 C122.710209,18.0907279 123.540133,17.8633838 124.285316,17.456068 L125.512354,21.6417087 Z" id="Path"></path>
                <path d="M143.022427,14.033534 C143.022427,19.314233 138.83068,22.8359709 133.903471,22.8359709 C128.861942,22.8359709 124.681626,19.314233 124.681626,14.033534 C124.681626,8.75283495 128.873374,5.25780583 133.903471,5.25780583 C138.842112,5.26925243 143.022427,8.78717476 143.022427,14.033534 Z M137.916117,14.033534 C137.916117,11.4427864 135.957427,9.71816505 133.903471,9.71816505 C132.781212,9.72873777 131.710894,10.1931671 130.935814,11.0058824 C130.160734,11.8185977 129.746739,12.9105533 129.787937,14.033534 C129.787937,16.6586214 131.746626,18.3527184 133.903471,18.3527184 C135.957427,18.3527184 137.916117,16.6586214 137.916117,14.033534 Z" id="Shape"></path>
                <path d="M156.588447,5.60120388 L156.355995,10.9047961 L155.391893,10.9047961 C151.676481,10.9047961 149.65301,12.8125631 149.65301,17.1508252 L149.65301,22.3704757 L144.348544,22.3704757 L144.348544,6.84506796 L149.65301,5.70040777 L149.65301,8.88637864 C150.849563,6.8946699 152.671068,5.45239806 155.391893,5.45239806 C155.795652,5.44718868 156.198228,5.49725386 156.588447,5.60120388 L156.588447,5.60120388 Z" id="Path"></path>
            </g>
        </g>
    </g>
</svg>